<mxfile host="app.diagrams.net" modified="2023-07-12T09:48:26.693Z" agent="Mozilla/5.0 (Windows NT 10.0; Win64; x64) AppleWebKit/537.36 (KHTML, like Gecko) Chrome/114.0.0.0 Safari/537.36" etag="X8Mr2JdA6MqTmV6X7jCv" version="21.3.8" type="github">
  <diagram name="第 1 页" id="6rmwsbcLH0Wm5wk95sRy">
    <mxGraphModel dx="1434" dy="796" grid="1" gridSize="10" guides="1" tooltips="1" connect="1" arrows="1" fold="1" page="1" pageScale="1" pageWidth="827" pageHeight="1169" math="0" shadow="0">
      <root>
        <mxCell id="0" />
        <mxCell id="1" parent="0" />
        <object placeholders="1" c4Name="Envoy Proxy Architecture" c4Type="SystemScopeBoundary" c4Application="Diagram" label="&lt;font style=&quot;font-size: 16px&quot;&gt;&lt;b&gt;&lt;div style=&quot;text-align: left&quot;&gt;%c4Name%&lt;/div&gt;&lt;/b&gt;&lt;/font&gt;&lt;div style=&quot;text-align: left&quot;&gt;[%c4Application%]&lt;/div&gt;" id="7gwWFT5Mcy8NNgLdWoav-1">
          <mxCell style="rounded=1;fontSize=11;whiteSpace=wrap;html=1;dashed=1;arcSize=20;fillColor=none;strokeColor=#666666;fontColor=#333333;labelBackgroundColor=none;align=left;verticalAlign=bottom;labelBorderColor=none;spacingTop=0;spacing=10;dashPattern=8 4;metaEdit=1;rotatable=0;perimeter=rectanglePerimeter;noLabel=0;labelPadding=0;allowArrows=0;connectable=0;expand=0;recursiveResize=0;editable=1;pointerEvents=0;absoluteArcSize=1;points=[[0.25,0,0],[0.5,0,0],[0.75,0,0],[1,0.25,0],[1,0.5,0],[1,0.75,0],[0.75,1,0],[0.5,1,0],[0.25,1,0],[0,0.75,0],[0,0.5,0],[0,0.25,0]];" vertex="1" parent="1">
            <mxGeometry x="100" y="160" width="1290" height="840" as="geometry" />
          </mxCell>
        </object>
        <mxCell id="7gwWFT5Mcy8NNgLdWoav-4" value="" style="html=1;shadow=0;dashed=0;shape=mxgraph.bootstrap.rrect;rSize=5;strokeColor=#0071D5;html=1;whiteSpace=wrap;fillColor=none;fontColor=#ffffff;verticalAlign=bottom;align=left;spacing=20;spacingBottom=0;fontSize=14;" vertex="1" parent="1">
          <mxGeometry x="150" y="190" width="250" height="210" as="geometry" />
        </mxCell>
        <mxCell id="7gwWFT5Mcy8NNgLdWoav-5" value="Listener" style="html=1;shadow=0;dashed=0;shape=mxgraph.bootstrap.topButton;rSize=5;perimeter=none;whiteSpace=wrap;fillColor=#007FFF;strokeColor=#0071D5;fontColor=#ffffff;resizeWidth=1;fontSize=18;align=center;spacing=20;" vertex="1" parent="7gwWFT5Mcy8NNgLdWoav-4">
          <mxGeometry width="250" height="50" relative="1" as="geometry" />
        </mxCell>
        <mxCell id="7gwWFT5Mcy8NNgLdWoav-9" style="edgeStyle=orthogonalEdgeStyle;rounded=0;orthogonalLoop=1;jettySize=auto;html=1;" edge="1" parent="7gwWFT5Mcy8NNgLdWoav-4" source="7gwWFT5Mcy8NNgLdWoav-7" target="7gwWFT5Mcy8NNgLdWoav-8">
          <mxGeometry relative="1" as="geometry" />
        </mxCell>
        <mxCell id="7gwWFT5Mcy8NNgLdWoav-7" value="Listener Filters" style="html=1;shadow=0;dashed=0;shape=mxgraph.bootstrap.rrect;rSize=5;strokeColor=none;strokeWidth=1;fillColor=#33A64C;fontColor=#FFFFFF;whiteSpace=wrap;align=center;verticalAlign=middle;spacingLeft=0;fontStyle=0;fontSize=16;spacing=5;" vertex="1" parent="7gwWFT5Mcy8NNgLdWoav-4">
          <mxGeometry x="65" y="69.99666666666667" width="120" height="46.66666666666667" as="geometry" />
        </mxCell>
        <mxCell id="7gwWFT5Mcy8NNgLdWoav-8" value="Filter Chains" style="html=1;shadow=0;dashed=0;shape=mxgraph.bootstrap.rrect;rSize=5;strokeColor=none;strokeWidth=1;fillColor=#33A64C;fontColor=#FFFFFF;whiteSpace=wrap;align=center;verticalAlign=middle;spacingLeft=0;fontStyle=0;fontSize=16;spacing=5;" vertex="1" parent="7gwWFT5Mcy8NNgLdWoav-4">
          <mxGeometry x="65" y="149.99666666666667" width="120" height="46.66666666666667" as="geometry" />
        </mxCell>
        <mxCell id="7gwWFT5Mcy8NNgLdWoav-21" value="" style="html=1;shadow=0;dashed=0;shape=mxgraph.bootstrap.rrect;rSize=10;strokeColor=#DFDFDF;html=1;whiteSpace=wrap;fillColor=#FFFFFF;fontColor=#000000;strokeOpacity=100;metaEdit=1;resizeWidth=1;resizeHeight=1;treeFolding=1;treeMoving=1;enumerate=0;" vertex="1" parent="1">
          <mxGeometry x="470" y="200" width="200" height="180" as="geometry" />
        </mxCell>
        <mxCell id="7gwWFT5Mcy8NNgLdWoav-22" value="Listener Filters" style="html=1;shadow=0;dashed=0;shape=mxgraph.bootstrap.topButton;rSize=7;strokeColor=none;fillColor=#FFB570;fontColor=#ffffff;perimeter=none;whiteSpace=wrap;resizeWidth=1;align=left;spacing=10;" vertex="1" parent="7gwWFT5Mcy8NNgLdWoav-21">
          <mxGeometry width="200" height="30" relative="1" as="geometry" />
        </mxCell>
        <mxCell id="7gwWFT5Mcy8NNgLdWoav-23" value="HTTP Inspector" style="strokeColor=inherit;fillColor=inherit;gradientColor=inherit;fontColor=inherit;html=1;shadow=0;dashed=0;perimeter=none;whiteSpace=wrap;resizeWidth=1;align=left;spacing=10;" vertex="1" parent="7gwWFT5Mcy8NNgLdWoav-21">
          <mxGeometry width="200" height="30" relative="1" as="geometry">
            <mxPoint y="30" as="offset" />
          </mxGeometry>
        </mxCell>
        <mxCell id="7gwWFT5Mcy8NNgLdWoav-24" value="Original Destination" style="strokeColor=inherit;fillColor=inherit;gradientColor=inherit;fontColor=inherit;html=1;shadow=0;dashed=0;perimeter=none;whiteSpace=wrap;resizeWidth=1;align=left;spacing=10;" vertex="1" parent="7gwWFT5Mcy8NNgLdWoav-21">
          <mxGeometry width="200" height="30" relative="1" as="geometry">
            <mxPoint y="60" as="offset" />
          </mxGeometry>
        </mxCell>
        <mxCell id="7gwWFT5Mcy8NNgLdWoav-25" value="Original Source" style="strokeColor=inherit;fillColor=inherit;gradientColor=inherit;fontColor=inherit;html=1;shadow=0;dashed=0;perimeter=none;whiteSpace=wrap;resizeWidth=1;align=left;spacing=10;" vertex="1" parent="7gwWFT5Mcy8NNgLdWoav-21">
          <mxGeometry width="200" height="30" relative="1" as="geometry">
            <mxPoint y="90" as="offset" />
          </mxGeometry>
        </mxCell>
        <mxCell id="7gwWFT5Mcy8NNgLdWoav-26" value="Proxy Protocol" style="strokeColor=inherit;fillColor=inherit;gradientColor=inherit;fontColor=inherit;html=1;shadow=0;dashed=0;shape=mxgraph.bootstrap.bottomButton;rSize=7;perimeter=none;whiteSpace=wrap;resizeWidth=1;resizeHeight=0;align=left;spacing=10;" vertex="1" parent="7gwWFT5Mcy8NNgLdWoav-21">
          <mxGeometry y="1" width="200" height="30" relative="1" as="geometry">
            <mxPoint y="-60" as="offset" />
          </mxGeometry>
        </mxCell>
        <mxCell id="7gwWFT5Mcy8NNgLdWoav-37" value="TLS Inspector" style="strokeColor=inherit;fillColor=inherit;gradientColor=inherit;fontColor=inherit;html=1;shadow=0;dashed=0;perimeter=none;whiteSpace=wrap;resizeWidth=1;align=left;spacing=10;" vertex="1" parent="7gwWFT5Mcy8NNgLdWoav-21">
          <mxGeometry y="150" width="200" height="30" as="geometry" />
        </mxCell>
        <mxCell id="7gwWFT5Mcy8NNgLdWoav-39" value="" style="html=1;shadow=0;dashed=0;shape=mxgraph.bootstrap.rrect;rSize=10;strokeColor=#DFDFDF;html=1;whiteSpace=wrap;fillColor=#FFFFFF;fontColor=#000000;strokeOpacity=100;metaEdit=1;resizeWidth=1;resizeHeight=1;treeFolding=1;treeMoving=1;enumerate=0;" vertex="1" parent="1">
          <mxGeometry x="740" y="200" width="200" height="180" as="geometry" />
        </mxCell>
        <mxCell id="7gwWFT5Mcy8NNgLdWoav-40" value="Network&amp;nbsp; Filters" style="html=1;shadow=0;dashed=0;shape=mxgraph.bootstrap.topButton;rSize=7;strokeColor=none;fillColor=#FF3333;fontColor=#ffffff;perimeter=none;whiteSpace=wrap;resizeWidth=1;align=left;spacing=10;" vertex="1" parent="7gwWFT5Mcy8NNgLdWoav-39">
          <mxGeometry width="200" height="30" relative="1" as="geometry" />
        </mxCell>
        <mxCell id="7gwWFT5Mcy8NNgLdWoav-41" value="Dubbo Proxy" style="strokeColor=inherit;fillColor=inherit;gradientColor=inherit;fontColor=inherit;html=1;shadow=0;dashed=0;perimeter=none;whiteSpace=wrap;resizeWidth=1;align=left;spacing=10;" vertex="1" parent="7gwWFT5Mcy8NNgLdWoav-39">
          <mxGeometry width="200" height="30" relative="1" as="geometry">
            <mxPoint y="30" as="offset" />
          </mxGeometry>
        </mxCell>
        <mxCell id="7gwWFT5Mcy8NNgLdWoav-42" value="Mongo Proxy" style="strokeColor=inherit;fillColor=inherit;gradientColor=inherit;fontColor=inherit;html=1;shadow=0;dashed=0;perimeter=none;whiteSpace=wrap;resizeWidth=1;align=left;spacing=10;" vertex="1" parent="7gwWFT5Mcy8NNgLdWoav-39">
          <mxGeometry width="200" height="30" relative="1" as="geometry">
            <mxPoint y="60" as="offset" />
          </mxGeometry>
        </mxCell>
        <mxCell id="7gwWFT5Mcy8NNgLdWoav-43" value="Mysql Proxy" style="strokeColor=inherit;fillColor=inherit;gradientColor=inherit;fontColor=inherit;html=1;shadow=0;dashed=0;perimeter=none;whiteSpace=wrap;resizeWidth=1;align=left;spacing=10;" vertex="1" parent="7gwWFT5Mcy8NNgLdWoav-39">
          <mxGeometry width="200" height="30" relative="1" as="geometry">
            <mxPoint y="90" as="offset" />
          </mxGeometry>
        </mxCell>
        <mxCell id="7gwWFT5Mcy8NNgLdWoav-44" value="Http conntection Manager" style="strokeColor=inherit;fillColor=inherit;gradientColor=inherit;fontColor=inherit;html=1;shadow=0;dashed=0;shape=mxgraph.bootstrap.bottomButton;rSize=7;perimeter=none;whiteSpace=wrap;resizeWidth=1;resizeHeight=0;align=left;spacing=10;" vertex="1" parent="7gwWFT5Mcy8NNgLdWoav-39">
          <mxGeometry y="1" width="200" height="30" relative="1" as="geometry">
            <mxPoint y="-60" as="offset" />
          </mxGeometry>
        </mxCell>
        <mxCell id="7gwWFT5Mcy8NNgLdWoav-45" value="... ..." style="strokeColor=inherit;fillColor=inherit;gradientColor=inherit;fontColor=inherit;html=1;shadow=0;dashed=0;perimeter=none;whiteSpace=wrap;resizeWidth=1;align=center;spacing=10;" vertex="1" parent="7gwWFT5Mcy8NNgLdWoav-39">
          <mxGeometry y="150" width="200" height="30" as="geometry" />
        </mxCell>
        <mxCell id="7gwWFT5Mcy8NNgLdWoav-46" value="" style="html=1;shadow=0;dashed=0;shape=mxgraph.bootstrap.rrect;rSize=10;strokeColor=#DFDFDF;html=1;whiteSpace=wrap;fillColor=#FFFFFF;fontColor=#000000;strokeOpacity=100;metaEdit=1;resizeWidth=1;resizeHeight=1;treeFolding=1;treeMoving=1;enumerate=0;" vertex="1" parent="1">
          <mxGeometry x="1030" y="200" width="200" height="180" as="geometry" />
        </mxCell>
        <mxCell id="7gwWFT5Mcy8NNgLdWoav-47" value="Network&amp;nbsp; Filters" style="html=1;shadow=0;dashed=0;shape=mxgraph.bootstrap.topButton;rSize=7;strokeColor=none;fillColor=#00CC00;fontColor=#ffffff;perimeter=none;whiteSpace=wrap;resizeWidth=1;align=left;spacing=10;" vertex="1" parent="7gwWFT5Mcy8NNgLdWoav-46">
          <mxGeometry width="200" height="30" relative="1" as="geometry" />
        </mxCell>
        <mxCell id="7gwWFT5Mcy8NNgLdWoav-48" value="Buffer" style="strokeColor=inherit;fillColor=inherit;gradientColor=inherit;fontColor=inherit;html=1;shadow=0;dashed=0;perimeter=none;whiteSpace=wrap;resizeWidth=1;align=left;spacing=10;" vertex="1" parent="7gwWFT5Mcy8NNgLdWoav-46">
          <mxGeometry width="200" height="30" relative="1" as="geometry">
            <mxPoint y="30" as="offset" />
          </mxGeometry>
        </mxCell>
        <mxCell id="7gwWFT5Mcy8NNgLdWoav-49" value="DynamoDB" style="strokeColor=inherit;fillColor=inherit;gradientColor=inherit;fontColor=inherit;html=1;shadow=0;dashed=0;perimeter=none;whiteSpace=wrap;resizeWidth=1;align=left;spacing=10;" vertex="1" parent="7gwWFT5Mcy8NNgLdWoav-46">
          <mxGeometry width="200" height="30" relative="1" as="geometry">
            <mxPoint y="60" as="offset" />
          </mxGeometry>
        </mxCell>
        <mxCell id="7gwWFT5Mcy8NNgLdWoav-50" value="gRPC-JSON transcoder" style="strokeColor=inherit;fillColor=inherit;gradientColor=inherit;fontColor=inherit;html=1;shadow=0;dashed=0;perimeter=none;whiteSpace=wrap;resizeWidth=1;align=left;spacing=10;" vertex="1" parent="7gwWFT5Mcy8NNgLdWoav-46">
          <mxGeometry width="200" height="30" relative="1" as="geometry">
            <mxPoint y="90" as="offset" />
          </mxGeometry>
        </mxCell>
        <mxCell id="7gwWFT5Mcy8NNgLdWoav-51" value="gRPC-WEB" style="strokeColor=inherit;fillColor=inherit;gradientColor=inherit;fontColor=inherit;html=1;shadow=0;dashed=0;shape=mxgraph.bootstrap.bottomButton;rSize=7;perimeter=none;whiteSpace=wrap;resizeWidth=1;resizeHeight=0;align=left;spacing=10;" vertex="1" parent="7gwWFT5Mcy8NNgLdWoav-46">
          <mxGeometry y="1" width="200" height="30" relative="1" as="geometry">
            <mxPoint y="-60" as="offset" />
          </mxGeometry>
        </mxCell>
        <mxCell id="7gwWFT5Mcy8NNgLdWoav-52" value="... ..." style="strokeColor=inherit;fillColor=inherit;gradientColor=inherit;fontColor=inherit;html=1;shadow=0;dashed=0;perimeter=none;whiteSpace=wrap;resizeWidth=1;align=center;spacing=10;" vertex="1" parent="7gwWFT5Mcy8NNgLdWoav-46">
          <mxGeometry y="150" width="200" height="30" as="geometry" />
        </mxCell>
        <mxCell id="7gwWFT5Mcy8NNgLdWoav-53" style="rounded=0;orthogonalLoop=1;jettySize=auto;html=1;entryX=0;entryY=0.633;entryDx=0;entryDy=0;entryPerimeter=0;dashed=1;exitX=0.992;exitY=0.557;exitDx=0;exitDy=0;exitPerimeter=0;edgeStyle=orthogonalEdgeStyle;curved=1;" edge="1" parent="1" source="7gwWFT5Mcy8NNgLdWoav-7" target="7gwWFT5Mcy8NNgLdWoav-22">
          <mxGeometry relative="1" as="geometry" />
        </mxCell>
        <mxCell id="7gwWFT5Mcy8NNgLdWoav-54" style="rounded=0;orthogonalLoop=1;jettySize=auto;html=1;entryX=0;entryY=0.5;entryDx=0;entryDy=0;entryPerimeter=0;dashed=1;edgeStyle=orthogonalEdgeStyle;curved=1;" edge="1" parent="1" source="7gwWFT5Mcy8NNgLdWoav-8" target="7gwWFT5Mcy8NNgLdWoav-40">
          <mxGeometry relative="1" as="geometry">
            <Array as="points">
              <mxPoint x="275" y="410" />
              <mxPoint x="700" y="410" />
              <mxPoint x="700" y="215" />
            </Array>
          </mxGeometry>
        </mxCell>
        <mxCell id="7gwWFT5Mcy8NNgLdWoav-55" style="edgeStyle=orthogonalEdgeStyle;rounded=0;orthogonalLoop=1;jettySize=auto;html=1;entryX=-0.005;entryY=0.533;entryDx=0;entryDy=0;entryPerimeter=0;curved=1;dashed=1;exitX=1.005;exitY=0.533;exitDx=0;exitDy=0;exitPerimeter=0;" edge="1" parent="1" source="7gwWFT5Mcy8NNgLdWoav-44" target="7gwWFT5Mcy8NNgLdWoav-47">
          <mxGeometry relative="1" as="geometry" />
        </mxCell>
        <mxCell id="7gwWFT5Mcy8NNgLdWoav-56" value="&lt;b&gt;&lt;font style=&quot;font-size: 20px&quot;&gt;Info card title&lt;/font&gt;&lt;/b&gt;&lt;br style=&quot;font-size: 14px&quot;&gt;&lt;br style=&quot;font-size: 14px&quot;&gt;Some quick example text to build on the card title and make up the bulk of the card&#39;s content." style="html=1;shadow=0;dashed=0;shape=mxgraph.bootstrap.rrect;rSize=5;strokeColor=none;html=1;whiteSpace=wrap;fillColor=none;fontColor=#ffffff;verticalAlign=bottom;align=left;spacing=20;spacingBottom=0;fontSize=14;" vertex="1" parent="1">
          <mxGeometry x="390" y="490" width="710" height="330" as="geometry" />
        </mxCell>
        <mxCell id="7gwWFT5Mcy8NNgLdWoav-57" value="Envoy" style="html=1;shadow=0;dashed=0;shape=mxgraph.bootstrap.topButton;rSize=5;perimeter=none;whiteSpace=wrap;fillColor=#1BA0B2;strokeColor=#188C9C;fontColor=#ffffff;resizeWidth=1;fontSize=18;align=left;spacing=20;" vertex="1" parent="7gwWFT5Mcy8NNgLdWoav-56">
          <mxGeometry width="710" height="50" relative="1" as="geometry" />
        </mxCell>
        <mxCell id="7gwWFT5Mcy8NNgLdWoav-58" value="Listners" style="shape=table;startSize=30;container=1;collapsible=0;childLayout=tableLayout;fontSize=16;align=left;verticalAlign=top;fillColor=none;strokeColor=none;fontColor=#4D4D4D;fontStyle=1;spacingLeft=6;spacing=0;resizable=0;" vertex="1" parent="7gwWFT5Mcy8NNgLdWoav-56">
          <mxGeometry x="40" y="120" width="180" height="120" as="geometry" />
        </mxCell>
        <mxCell id="7gwWFT5Mcy8NNgLdWoav-63" value="" style="shape=tableRow;horizontal=0;startSize=0;swimlaneHead=0;swimlaneBody=0;strokeColor=inherit;top=0;left=0;bottom=0;right=0;collapsible=0;dropTarget=0;fillColor=none;points=[[0,0.5],[1,0.5]];portConstraint=eastwest;fontSize=12;" vertex="1" parent="7gwWFT5Mcy8NNgLdWoav-58">
          <mxGeometry y="30" width="180" height="30" as="geometry" />
        </mxCell>
        <mxCell id="7gwWFT5Mcy8NNgLdWoav-64" value="Listener 0" style="shape=partialRectangle;html=1;whiteSpace=wrap;connectable=0;strokeColor=inherit;overflow=hidden;fillColor=#52a2d8;top=0;left=0;bottom=0;right=0;pointerEvents=1;fontSize=12;align=left;fontColor=#FFFFFF;gradientColor=none;spacingLeft=10;spacingRight=4;" vertex="1" parent="7gwWFT5Mcy8NNgLdWoav-63">
          <mxGeometry width="180" height="30" as="geometry">
            <mxRectangle width="180" height="30" as="alternateBounds" />
          </mxGeometry>
        </mxCell>
        <mxCell id="7gwWFT5Mcy8NNgLdWoav-65" value="" style="shape=tableRow;horizontal=0;startSize=0;swimlaneHead=0;swimlaneBody=0;strokeColor=inherit;top=0;left=0;bottom=0;right=0;collapsible=0;dropTarget=0;fillColor=none;points=[[0,0.5],[1,0.5]];portConstraint=eastwest;fontSize=12;" vertex="1" parent="7gwWFT5Mcy8NNgLdWoav-58">
          <mxGeometry y="60" width="180" height="30" as="geometry" />
        </mxCell>
        <mxCell id="7gwWFT5Mcy8NNgLdWoav-66" value="Listener 1" style="shape=partialRectangle;html=1;whiteSpace=wrap;connectable=0;strokeColor=inherit;overflow=hidden;fillColor=#7dbef2;top=0;left=0;bottom=0;right=0;pointerEvents=1;fontSize=12;align=left;fontColor=#FFFFFF;gradientColor=none;spacingLeft=10;spacingRight=4;" vertex="1" parent="7gwWFT5Mcy8NNgLdWoav-65">
          <mxGeometry width="180" height="30" as="geometry">
            <mxRectangle width="180" height="30" as="alternateBounds" />
          </mxGeometry>
        </mxCell>
        <mxCell id="7gwWFT5Mcy8NNgLdWoav-67" value="" style="shape=tableRow;horizontal=0;startSize=0;swimlaneHead=0;swimlaneBody=0;strokeColor=inherit;top=0;left=0;bottom=0;right=0;collapsible=0;dropTarget=0;fillColor=none;points=[[0,0.5],[1,0.5]];portConstraint=eastwest;fontSize=12;" vertex="1" parent="7gwWFT5Mcy8NNgLdWoav-58">
          <mxGeometry y="90" width="180" height="30" as="geometry" />
        </mxCell>
        <mxCell id="7gwWFT5Mcy8NNgLdWoav-68" value="Listener 2" style="shape=partialRectangle;html=1;whiteSpace=wrap;connectable=0;strokeColor=inherit;overflow=hidden;fillColor=#6b6477;top=0;left=0;bottom=0;right=0;pointerEvents=1;fontSize=12;align=left;fontColor=#FFFFFF;gradientColor=none;spacingLeft=10;spacingRight=4;" vertex="1" parent="7gwWFT5Mcy8NNgLdWoav-67">
          <mxGeometry width="180" height="30" as="geometry">
            <mxRectangle width="180" height="30" as="alternateBounds" />
          </mxGeometry>
        </mxCell>
        <mxCell id="7gwWFT5Mcy8NNgLdWoav-73" value="Cluster 2" style="rounded=1;whiteSpace=wrap;html=1;arcSize=50;strokeColor=none;strokeWidth=1;fillColor=#33A64C;fontColor=#FFFFFF;whiteSpace=wrap;align=left;verticalAlign=middle;spacingLeft=0;fontStyle=1;fontSize=14;spacing=10;" vertex="1" parent="7gwWFT5Mcy8NNgLdWoav-56">
          <mxGeometry x="340" y="230" width="90" height="40" as="geometry" />
        </mxCell>
        <mxCell id="7gwWFT5Mcy8NNgLdWoav-71" value="Cluster 0" style="rounded=1;whiteSpace=wrap;html=1;arcSize=50;strokeColor=none;strokeWidth=1;fillColor=#33A64C;fontColor=#FFFFFF;whiteSpace=wrap;align=left;verticalAlign=middle;spacingLeft=0;fontStyle=1;fontSize=14;spacing=10;" vertex="1" parent="7gwWFT5Mcy8NNgLdWoav-56">
          <mxGeometry x="340" y="95" width="90" height="40" as="geometry" />
        </mxCell>
        <mxCell id="7gwWFT5Mcy8NNgLdWoav-74" value="Endpoints 0" style="html=1;shadow=0;dashed=0;shape=mxgraph.bootstrap.rrect;rSize=5;strokeColor=none;strokeWidth=1;fillColor=#FFBC26;fontColor=#FFFFFF;whiteSpace=wrap;align=center;verticalAlign=middle;spacingLeft=0;fontStyle=0;fontSize=16;spacing=5;" vertex="1" parent="7gwWFT5Mcy8NNgLdWoav-56">
          <mxGeometry x="560" y="70" width="100" height="40" as="geometry" />
        </mxCell>
        <mxCell id="7gwWFT5Mcy8NNgLdWoav-75" value="Endpoints 1" style="html=1;shadow=0;dashed=0;shape=mxgraph.bootstrap.rrect;rSize=5;strokeColor=none;strokeWidth=1;fillColor=#FFBC26;fontColor=#FFFFFF;whiteSpace=wrap;align=center;verticalAlign=middle;spacingLeft=0;fontStyle=0;fontSize=16;spacing=5;" vertex="1" parent="7gwWFT5Mcy8NNgLdWoav-56">
          <mxGeometry x="560" y="120" width="100" height="40" as="geometry" />
        </mxCell>
        <mxCell id="7gwWFT5Mcy8NNgLdWoav-76" value="Endpoints 2" style="html=1;shadow=0;dashed=0;shape=mxgraph.bootstrap.rrect;rSize=5;strokeColor=none;strokeWidth=1;fillColor=#FFBC26;fontColor=#FFFFFF;whiteSpace=wrap;align=center;verticalAlign=middle;spacingLeft=0;fontStyle=0;fontSize=16;spacing=5;" vertex="1" parent="7gwWFT5Mcy8NNgLdWoav-56">
          <mxGeometry x="560" y="170" width="100" height="40" as="geometry" />
        </mxCell>
        <mxCell id="7gwWFT5Mcy8NNgLdWoav-78" value="Endpoints 4" style="html=1;shadow=0;dashed=0;shape=mxgraph.bootstrap.rrect;rSize=5;strokeColor=none;strokeWidth=1;fillColor=#FFBC26;fontColor=#FFFFFF;whiteSpace=wrap;align=center;verticalAlign=middle;spacingLeft=0;fontStyle=0;fontSize=16;spacing=5;" vertex="1" parent="7gwWFT5Mcy8NNgLdWoav-56">
          <mxGeometry x="560" y="270" width="100" height="40" as="geometry" />
        </mxCell>
        <mxCell id="7gwWFT5Mcy8NNgLdWoav-72" value="Cluster 1" style="rounded=1;whiteSpace=wrap;html=1;arcSize=50;strokeColor=none;strokeWidth=1;fillColor=#33A64C;fontColor=#FFFFFF;whiteSpace=wrap;align=left;verticalAlign=middle;spacingLeft=0;fontStyle=1;fontSize=14;spacing=10;" vertex="1" parent="1">
          <mxGeometry x="730" y="650" width="90" height="40" as="geometry" />
        </mxCell>
        <mxCell id="7gwWFT5Mcy8NNgLdWoav-77" value="Endpoints 3" style="html=1;shadow=0;dashed=0;shape=mxgraph.bootstrap.rrect;rSize=5;strokeColor=none;strokeWidth=1;fillColor=#FFBC26;fontColor=#FFFFFF;whiteSpace=wrap;align=center;verticalAlign=middle;spacingLeft=0;fontStyle=0;fontSize=16;spacing=5;" vertex="1" parent="1">
          <mxGeometry x="950" y="710" width="100" height="40" as="geometry" />
        </mxCell>
      </root>
    </mxGraphModel>
  </diagram>
</mxfile>
